<svg width="36" height="36" viewBox="0 0 36 36" fill="none" xmlns="http://www.w3.org/2000/svg">
<path d="M17.0238 14.3848C16.2976 14.6103 15.6544 15.0469 15.1753 15.6394C14.6963 16.2319 14.403 16.9537 14.3326 17.7136C14.2622 18.4734 14.4178 19.2372 14.7798 19.9082C15.1417 20.5793 15.6937 21.1275 16.366 21.4836C17.0383 21.8397 17.8007 21.9876 18.5567 21.9087C19.3127 21.8298 20.0285 21.5276 20.6134 21.0403C21.1984 20.553 21.6263 19.9024 21.843 19.171C22.0597 18.4395 22.0555 17.66 21.8309 16.9309C21.6818 16.4469 21.4392 15.997 21.1169 15.6071C20.7946 15.2172 20.399 14.8948 19.9526 14.6583C19.5062 14.4219 19.0178 14.2761 18.5153 14.2291C18.0128 14.1822 17.506 14.2351 17.0238 14.3848ZM30.6033 6.17855C30.2419 5.03315 29.6811 3.96118 28.9467 3.01247C28.4075 2.31884 27.7279 1.7479 26.9527 1.33733C26.1775 0.926759 25.3244 0.685885 24.4498 0.630603C23.2552 0.557675 22.0572 0.698058 20.9115 1.04523C18.9697 1.53418 18.4071 1.70886 13.5807 3.20744C8.75427 4.70603 8.19168 4.88071 6.3139 5.57775C5.17301 5.94056 4.10527 6.50367 3.16029 7.24091C2.4694 7.7823 1.90071 8.46463 1.49175 9.24287C1.08279 10.0211 0.842866 10.8776 0.787796 11.7557C0.715148 12.955 0.85497 14.1577 1.20076 15.308C1.68777 17.2575 1.86176 17.8223 3.3544 22.6678C4.84704 27.5134 5.02103 28.0782 5.71531 29.9634C6.08607 31.1103 6.64774 32.1858 7.37646 33.1443C7.91329 33.8348 8.59127 34.4017 9.36472 34.8069C10.1384 35.2218 10.993 35.4622 11.8689 35.5113C13.0634 35.5843 14.2614 35.4439 15.4071 35.0967C17.349 34.6078 17.9116 34.4331 22.738 32.9345C27.5644 31.4359 28.1269 31.2612 30.0047 30.5642C31.1456 30.2014 32.2134 29.6383 33.1583 28.901C33.8536 28.3641 34.4238 27.6813 34.8292 26.9003C35.2397 26.1274 35.4805 25.2752 35.5354 24.4011C35.606 23.1967 35.4647 21.9892 35.1179 20.834C34.6308 18.8844 34.4569 18.3196 32.9642 13.4741C31.4716 8.62858 31.2976 8.06377 30.6033 6.17855ZM30.5058 19.237C30.7408 20.169 30.8242 21.133 30.7525 22.0917C30.6848 22.8939 30.457 23.6743 30.0828 24.3863C29.7086 25.0984 29.1956 25.7277 28.5744 26.2368C27.8127 26.8211 26.9619 27.2777 26.0549 27.589L16.9943 30.4023C16.0706 30.6595 15.1116 30.7648 14.1544 30.7141C13.3358 30.6682 12.5382 30.4371 11.8212 30.038C11.1205 29.6714 10.5078 29.1559 10.0257 28.5273C9.44268 27.764 8.99231 26.9073 8.69357 25.9933L5.89144 16.8968C5.6241 15.9731 5.5141 15.0107 5.56607 14.0502C5.61185 13.2285 5.84206 12.4277 6.23949 11.7078C6.60796 11.0065 7.12092 10.392 7.74427 9.90518C8.50588 9.32086 9.3567 8.8642 10.2637 8.55292L19.3243 5.73963C20.248 5.48249 21.207 5.37719 22.1643 5.42782C22.9828 5.47377 23.7804 5.70489 24.4975 6.1039C25.1981 6.47056 25.8109 6.98609 26.2929 7.61462C26.875 8.37924 27.3298 9.23343 27.6399 10.144L29.0409 14.6923C29.9841 17.7542 30.1839 18.0341 30.5012 19.2221L30.5058 19.237ZM24.7305 8.91402C24.4063 8.48863 23.9941 8.13892 23.5222 7.889C23.0504 7.63908 22.5301 7.4949 21.9974 7.46642C21.2704 7.44179 20.5447 7.54584 19.8536 7.77379L10.9707 10.5319C10.2744 10.7556 9.62299 11.1012 9.04662 11.5527C8.62776 11.8679 8.28051 12.2689 8.02795 12.7292C7.77539 13.1895 7.62331 13.6985 7.58182 14.2223C7.57074 14.9511 7.67917 15.6767 7.90277 16.37L10.65 25.2882C10.8804 25.984 11.224 26.6367 11.6667 27.2198C11.9909 27.6452 12.4031 27.9949 12.875 28.2448C13.3468 28.4947 13.8671 28.6389 14.3998 28.6674C15.1033 28.7045 15.8082 28.6286 16.4879 28.4425L25.3709 25.6843C26.0671 25.4606 26.7185 25.115 27.2949 24.6635C27.7186 24.3381 28.0669 23.9242 28.3159 23.4505C28.5648 22.9768 28.7084 22.4544 28.7368 21.9196C28.7826 21.1871 28.699 20.4522 28.4899 19.7489L25.7427 10.8308C25.5269 10.1288 25.182 9.47362 24.7259 8.89915L24.7305 8.91402ZM19.9084 23.7488C19.1664 23.9792 18.3864 24.0604 17.6131 23.9876C16.8398 23.9149 16.0884 23.6897 15.402 23.325C14.7155 22.9603 14.1075 22.4631 13.6127 21.8621C13.118 21.261 12.7462 20.5679 12.5186 19.8224C12.1725 18.6988 12.1662 17.4973 12.5006 16.3701C12.835 15.2429 13.4949 14.2407 14.397 13.4902C15.299 12.7398 16.4025 12.2749 17.5678 12.1544C18.7331 12.034 19.9078 12.2633 20.9432 12.8135C21.9787 13.3636 22.8282 14.2099 23.3843 15.245C23.9404 16.2801 24.1781 17.4577 24.0673 18.6285C23.9565 19.7993 23.5022 20.9109 22.7619 21.8223C22.0215 22.7338 21.0284 23.4043 19.9084 23.7488ZM22.6756 11.6691C22.3376 11.736 21.987 11.6749 21.6912 11.4976C21.3954 11.3203 21.1754 11.0394 21.0737 10.709C20.9719 10.3786 20.9955 10.0221 21.14 9.7081C21.2844 9.39413 21.5395 9.14494 21.8561 9.00855C22.194 8.94171 22.5447 9.00281 22.8405 9.18009C23.1363 9.35736 23.3562 9.63826 23.458 9.96866C23.5598 10.2991 23.5362 10.6556 23.3917 10.9696C23.2473 11.2835 22.9922 11.5327 22.6756 11.6691Z" fill="#1E1E1E"/>
</svg>
