<svg width="89" height="89" viewBox="0 0 89 89" fill="none" xmlns="http://www.w3.org/2000/svg">
<path d="M22.7903 9.82195C25.5675 1.18203 36.1188 -2.0253 43.2351 3.60731L47.5212 6.99985C50.568 9.41145 54.5338 10.3338 58.332 9.51416L63.6758 8.36102C72.5465 6.44679 80.5996 13.9801 79.2805 22.9585L78.4854 28.3695C77.9207 32.2134 79.1048 36.1085 81.7136 38.9878L85.3858 43.0409C91.4791 49.7661 88.9815 60.5065 80.5461 63.8529L75.4647 65.8687C71.8528 67.3016 69.0714 70.2749 67.8824 73.9741L66.2097 79.1779C63.4325 87.8178 52.8812 91.0252 45.7649 85.3926L41.4788 82C38.432 79.5884 34.4662 78.6661 30.668 79.4857L25.3242 80.6389C16.4535 82.5531 8.40039 75.0198 9.71954 66.0414L10.5146 60.6304C11.0793 56.7865 9.89516 52.8913 7.28641 50.0121L3.61417 45.959C-2.4791 39.2338 0.0185274 28.4933 8.45387 25.147L13.5353 23.1311C17.1472 21.6983 19.9286 18.725 21.1176 15.0258L22.7903 9.82195Z" fill="#FFBE7D"/>
</svg>
