<svg width="31" height="26" viewBox="0 0 31 26" fill="none" xmlns="http://www.w3.org/2000/svg">
<path fill-rule="evenodd" clip-rule="evenodd" d="M27.5977 0.317623C27.9678 0.161874 28.3728 0.108157 28.7706 0.162063C29.1684 0.215969 29.5445 0.375528 29.8598 0.624131C30.175 0.872735 30.4179 1.2013 30.5631 1.57561C30.7082 1.94993 30.7504 2.35633 30.6853 2.7525L27.2893 23.3531C26.9599 25.3402 24.7797 26.4798 22.9574 25.49C21.4331 24.6619 19.1691 23.386 17.1327 22.0548C16.1145 21.3884 12.9956 19.2545 13.3789 17.7361C13.7083 16.4378 18.949 11.5591 21.9437 8.65849C23.1192 7.51892 22.5831 6.86153 21.1951 7.90976C17.7467 10.5123 12.2139 14.4701 10.3842 15.5842C8.77004 16.5666 7.92852 16.7343 6.9223 16.5666C5.08655 16.2611 3.38406 15.7879 1.99452 15.2114C0.116839 14.4327 0.208178 11.8511 1.99302 11.0993L27.5977 0.317623Z" fill="#1E1E1E"/>
</svg>
