<svg width="308" height="32" viewBox="0 0 308 32" fill="none" xmlns="http://www.w3.org/2000/svg">
<path fill-rule="evenodd" clip-rule="evenodd" d="M247.632 0.182533C236.11 0.88363 204.475 2.89806 194.366 3.58929C177.243 4.75449 148.709 5.84072 102.512 7.07505C27.7258 9.16847 4.62738 11.4198 0.826108 17.2261C-1.99888 21.4919 1.64315 21.8771 24.0354 19.9416C47.8401 17.8482 59.9086 16.999 86.4828 15.5968C128.442 13.3454 179.694 9.85966 201.165 7.84524C247.798 3.43129 264.104 2.49322 287.147 3.11532C307.095 3.57943 309.159 3.42141 307.58 1.17988C307.088 0.478781 256.82 -0.370394 247.632 0.172709V0.182533Z" fill="#FFBE7D"/>
<path fill-rule="evenodd" clip-rule="evenodd" d="M215.837 18.0852C211.98 18.2432 199.586 18.8555 188.335 19.4776C175.885 20.1787 154.747 20.6428 134.258 20.6428C97.4089 20.6428 70.6684 21.571 53.8777 23.3583C41.8646 24.6716 38.3887 25.3727 35.3422 27.2291C33.4935 28.3153 33.3827 28.5424 34.1444 29.6286C34.636 30.3297 36.2077 31.179 37.6202 31.5641C40.4452 32.3343 41.5876 32.2652 61.7503 29.8558C88.8162 26.6762 100.504 25.9849 139.742 25.2838C161.594 24.8987 181.376 24.3556 183.765 24.1186C186.154 23.8817 193.112 23.3385 199.254 22.9534C211.918 22.0252 230.994 20.0108 232.842 19.4677C233.549 19.2307 233.929 18.6975 233.763 18.3025C233.549 17.8384 231.097 17.6014 228.162 17.6804C225.281 17.7594 219.735 17.9865 215.823 18.0655L215.837 18.0852Z" fill="#FFBE7D"/>
</svg>
