<svg width="44" height="35" viewBox="0 0 44 35" fill="none" xmlns="http://www.w3.org/2000/svg">
<path d="M24.8899 3.81343L25.493 3.96116L26.5688 4.23795C28.0052 4.60867 30.6172 5.29875 33.2324 6.05979L33.6523 6.18263C36.593 7.04458 39.4623 7.98158 40.6773 8.66157C41.46 9.09989 42.1131 9.73368 42.5829 10.5039C43.0445 11.2721 43.2947 12.1486 43.3138 13.0373C43.3024 18.6291 40.915 26.8696 38.5802 32.019C38.1422 32.8001 37.508 33.4548 36.7403 33.9077C35.9726 34.3606 35.0961 34.6178 34.1908 34.6329C31.1059 34.6958 19.9891 31.9589 18.6682 31.6312L17.3383 31.2907C15.9927 30.9428 13.6851 30.3325 11.2968 29.6459L10.5365 29.4254L9.81136 29.212C7.05299 28.3923 4.4469 27.5248 3.30904 26.887C2.52609 26.4509 1.87082 25.8177 1.4083 25.05C0.945788 24.2824 0.692114 23.4072 0.672473 22.5112C0.6732 16.9343 3.11835 8.7083 5.40616 3.52953C5.84607 2.74848 6.4827 2.09613 7.25278 1.6373C8.02287 1.17846 8.89961 0.929111 9.79589 0.914017C12.6692 0.855855 22.4812 3.20065 24.9118 3.7891L24.8899 3.81343ZM18.6802 9.97297L15.3699 23.1733L28.5754 19.4696L18.6802 9.97297Z" fill="#1E1E1E"/>
</svg>
